:FULLY-SPECIFIED
:FORCE-ALL-JOINTS-BE-3DOF
:DEGREES
102
root -2.86319 16.5087 -36.2292 2.69761 0.222326 -2.39334
lfemur -20.8652 5.80246 -8.93966
ltibia 44.5137 -0 0
lfoot -21.5556 0.0659676 -0.00128801
ltoes -8.06472 0 0
rfemur -21.3635 -5.76049 13.9549
rtibia 47.2156 -0 0
rfoot -25.4931 1.55369 -0.000494421
rtoes -6.59315 0 0
lowerback 8.67252 1.99377 -1.66424
upperback -3.39767 2.57045 1.23448
thorax -8.60857 1.38245 1.83129
lowerneck -2.61206 -3.85702 -6.62767
upperneck 5.25849 -5.18966 6.04095
head 2.53663 -2.56661 2.99027
lclavicle -9.17289e-16 5.20711e-15 -2.68525e-32
lhumerus -26.5746 -3.97759 89.4453
lradius 24.9859 -0 0
lwrist -30.5425 0 0
lhand -28.6739 30.2781 0.000339703
lfingers 7.12502 -0 0
lthumb -2.03674 60.248 0.000330849
rclavicle -9.17289e-16 5.20711e-15 -2.68525e-32
rhumerus -32.5153 2.93291 -80.4465
rradius 30.6258 -0 0
rwrist 2.597 0 0
rhand -20.1029 -27.0357 -0.000432711
rfingers 7.12502 -0 0
rthumb 6.24044 -56.9236 -0.000403794
103
root -2.86015 16.5063 -36.2258 2.75276 0.236342 -2.41043
lfemur -20.9482 5.80296 -8.93405
ltibia 44.5748 -0 0
lfoot -21.5955 0.0859197 -0.00130192
ltoes -8.12378 0 0
rfemur -21.4263 -5.79185 13.9646
rtibia 47.249 -0 0
rfoot -25.5208 1.56473 -0.000499758
rtoes -6.63395 0 0
lowerback 8.5901 1.99125 -1.67578
upperback -3.42562 2.56704 1.23637
thorax -8.59123 1.38181 1.84244
lowerneck -2.61389 -3.85836 -6.62429
upperneck 5.30635 -5.19344 6.04358
head 2.55331 -2.5684 2.99047
lclavicle -8.97712e-16 6.05445e-15 -2.71424e-32
lhumerus -26.5739 -3.93614 89.4269
lradius 24.9811 -0 0
lwrist -30.5551 0 0
lhand -28.6601 30.2933 0.00034337
lfingers 7.12502 -0 0
lthumb -2.02341 60.2634 0.00033442
rclavicle -8.97712e-16 6.05445e-15 -2.71424e-32
rhumerus -32.5255 2.90247 -80.4432
rradius 30.6179 -0 0
rwrist 2.60507 0 0
rhand -20.0853 -27.0508 -0.000437382
rfingers 7.12502 -0 0
rthumb 6.25749 -56.9383 -0.000408153
104
root -2.85711 16.5038 -36.2224 2.80803 0.250408 -2.42754
lfemur -21.0313 5.80346 -8.92843
ltibia 44.636 -0 0
lfoot -21.6354 0.105919 -0.00130192
ltoes -8.18297 0 0
rfemur -21.4893 -5.82328 13.9743
rtibia 47.2826 -0 0
rfoot -25.5485 1.5758 -0.000499758
rtoes -6.67483 0 0
lowerback 8.50748 1.9887 -1.68735
upperback -3.45364 2.56361 1.23827
thorax -8.57386 1.38116 1.85361
lowerneck -2.61573 -3.85969 -6.62091
upperneck 5.35433 -5.19724 6.04622
head 2.57003 -2.5702 2.99066
lclavicle -8.78087e-16 6.90382e-15 -2.71424e-32
lhumerus -26.5733 -3.8946 89.4085
lradius 24.9762 -0 0
lwrist -30.5677 0 0
lhand -28.6462 30.3085 0.00034337
lfingers 7.12502 -0 0
lthumb -2.01004 60.2787 0.00033442
rclavicle -8.78087e-16 6.90382e-15 -2.71424e-32
rhumerus -32.5357 2.87195 -80.4398
rradius 30.6101 -0 0
rwrist 2.61315 0 0
rhand -20.0675 -27.066 -0.000437382
rfingers 7.12502 -0 0
rthumb 6.27459 -56.9529 -0.000408153
105
root -2.85407 16.5014 -36.219 2.86316 0.264457 -2.4446
lfemur -21.1143 5.80397 -8.92282
ltibia 44.6971 -0 0
lfoot -21.6753 0.125871 -0.00128801
ltoes -8.24203 0 0
rfemur -21.5522 -5.85462 13.984
rtibia 47.316 -0 0
rfoot -25.5762 1.58684 -0.000494421
rtoes -6.71563 0 0
lowerback 8.42506 1.98613 -1.69889
upperback -3.48159 2.5602 1.24016
thorax -8.55653 1.3805 1.86475
lowerneck -2.61757 -3.86103 -6.61754
upperneck 5.4022 -5.20102 6.04885
head 2.58671 -2.57199 2.99085
lclavicle -8.5851e-16 7.75116e-15 -2.68525e-32
lhumerus -26.5726 -3.85315 89.3901
lradius 24.9714 -0 0
lwrist -30.5803 0 0
lhand -28.6324 30.3237 0.000339703
lfingers 7.12502 -0 0
lthumb -1.99671 60.2941 0.000330849
rclavicle -8.5851e-16 7.75116e-15 -2.68525e-32
rhumerus -32.5459 2.84151 -80.4364
rradius 30.6022 -0 0
rwrist 2.62122 0 0
rhand -20.0499 -27.0811 -0.000432711
rfingers 7.12502 -0 0
rthumb 6.29164 -56.9676 -0.000403794
106
root -2.85105 16.4991 -36.2156 2.9179 0.278421 -2.46152
lfemur -21.1967 5.80449 -8.91726
ltibia 44.7577 -0 0
lfoot -21.7149 0.145681 -0.00126047
ltoes -8.30066 0 0
rfemur -21.6146 -5.88572 13.9937
rtibia 47.3493 -0 0
rfoot -25.6036 1.5978 -0.000483848
rtoes -6.75613 0 0
lowerback 8.34323 1.98358 -1.71034
upperback -3.50934 2.55681 1.24204
thorax -8.53932 1.37985 1.87582
lowerneck -2.61939 -3.86235 -6.6142
upperneck 5.44973 -5.20479 6.05145
head 2.60327 -2.57377 2.99104
lclavicle -8.39073e-16 8.59244e-15 -2.62783e-32
lhumerus -26.5719 -3.812 89.3719
lradius 24.9666 -0 0
lwrist -30.5928 0 0
lhand -28.6187 30.3388 0.000332438
lfingers 7.12502 -0 0
lthumb -1.98347 60.3093 0.000323773
rclavicle -8.39073e-16 8.59244e-15 -2.62783e-32
rhumerus -32.556 2.81129 -80.4331
rradius 30.5944 -0 0
rwrist 2.62923 0 0
rhand -20.0323 -27.0961 -0.000423458
rfingers 7.12502 -0 0
rthumb 6.30858 -56.9821 -0.000395159
107
root -2.84807 16.4967 -36.2123 2.97197 0.292233 -2.47823
lfemur -21.2781 5.805 -8.91176
ltibia 44.8176 -0 0
lfoot -21.754 0.165252 -0.00121981
ltoes -8.35859 0 0
rfemur -21.6762 -5.91644 14.0034
rtibia 47.3821 -0 0
rfoot -25.6308 1.60863 -0.000468241
rtoes -6.79614 0 0
lowerback 8.26238 1.98103 -1.72165
upperback -3.53676 2.55346 1.2439
thorax -8.52232 1.3792 1.88675
lowerneck -2.62119 -3.86366 -6.61089
upperneck 5.49668 -5.20851 6.05402
head 2.61964 -2.57553 2.99123
lclavicle -8.19869e-16 9.42361e-15 -2.54307e-32
lhumerus -26.5713 -3.77135 89.3539
lradius 24.9619 -0 0
lwrist -30.6051 0 0
lhand -28.6052 30.3537 0.000321716
lfingers 7.12502 -0 0
lthumb -1.97039 60.3243 0.00031333
rclavicle -8.19869e-16 9.42361e-15 -2.54307e-32
rhumerus -32.566 2.78143 -80.4298
rradius 30.5867 -0 0
rwrist 2.63714 0 0
rhand -20.015 -27.111 -0.000409799
rfingers 7.12502 -0 0
rthumb 6.32531 -56.9964 -0.000382413
108
root -2.84515 16.4944 -36.209 3.02512 0.305826 -2.49463
lfemur -21.3581 5.80552 -8.90636
ltibia 44.8765 -0 0
lfoot -21.7925 0.18449 -0.00116682
ltoes -8.41554 0 0
rfemur -21.7369 -5.94663 14.0128
rtibia 47.4144 -0 0
rfoot -25.6575 1.61928 -0.000447901
rtoes -6.83547 0 0
lowerback 8.18291 1.97852 -1.73276
upperback -3.5637 2.55017 1.24573
thorax -8.50561 1.37856 1.89749
lowerneck -2.62296 -3.86495 -6.60764
upperneck 5.54283 -5.21216 6.05654
head 2.63572 -2.57726 2.99141
lclavicle -8.00992e-16 1.02406e-14 -2.4326e-32
lhumerus -26.5707 -3.73138 89.3361
lradius 24.9573 -0 0
lwrist -30.6173 0 0
lhand -28.5919 30.3684 0.000307741
lfingers 7.12502 -0 0
lthumb -1.95754 60.3391 0.000299719
rclavicle -8.00992e-16 1.02406e-14 -2.4326e-32
rhumerus -32.5758 2.75208 -80.4265
rradius 30.5791 -0 0
rwrist 2.64491 0 0
rhand -19.998 -27.1256 -0.000391998
rfingers 7.12502 -0 0
rthumb 6.34175 -57.0105 -0.000365802
109
root -2.84228 16.4921 -36.2058 3.07708 0.319131 -2.51067
lfemur -21.4363 5.80603 -8.90107
ltibia 44.9341 -0 0
lfoot -21.8301 0.203299 -0.00110253
ltoes -8.47121 0 0
rfemur -21.7962 -5.97614 14.0221
rtibia 47.4459 -0 0
rfoot -25.6835 1.62969 -0.000423222
rtoes -6.87393 0 0
lowerback 8.10521 1.97604 -1.74362
upperback -3.59005 2.54695 1.24752
thorax -8.48927 1.37793 1.908
lowerneck -2.62469 -3.86621 -6.60446
upperneck 5.58796 -5.21574 6.05901
head 2.65145 -2.57895 2.99159
lclavicle -7.82535e-16 1.10395e-14 -2.29857e-32
lhumerus -26.5701 -3.69231 89.3188
lradius 24.9527 -0 0
lwrist -30.6292 0 0
lhand -28.5789 30.3827 0.000290784
lfingers 7.12502 -0 0
lthumb -1.94497 60.3536 0.000283205
rclavicle -7.82535e-16 1.10395e-14 -2.29857e-32
rhumerus -32.5854 2.72338 -80.4233
rradius 30.5717 -0 0
rwrist 2.65252 0 0
rhand -19.9813 -27.1398 -0.000370399
rfingers 7.12502 -0 0
rthumb 6.35783 -57.0243 -0.000345646
110
root -2.8395 16.4899 -36.2027 3.12759 0.332079 -2.52624
lfemur -21.5123 5.80654 -8.89594
ltibia 44.9901 -0 0
lfoot -21.8666 0.221585 -0.0010282
ltoes -8.52534 0 0
rfemur -21.8538 -6.00482 14.0312
rtibia 47.4766 -0 0
rfoot -25.7089 1.63981 -0.000394688
rtoes -6.91131 0 0
lowerback 8.02968 1.97362 -1.75418
upperback -3.61567 2.54382 1.24926
thorax -8.47338 1.37732 1.91821
lowerneck -2.62637 -3.86743 -6.60137
upperneck 5.63183 -5.21922 6.0614
head 2.66674 -2.58059 2.99176
lclavicle -7.64592e-16 1.1816e-14 -2.1436e-32
lhumerus -26.5695 -3.65432 89.302
lradius 24.9483 -0 0
lwrist -30.6407 0 0
lhand -28.5662 30.3966 0.000271179
lfingers 7.12502 -0 0
lthumb -1.93275 60.3676 0.000264111
rclavicle -7.64592e-16 1.1816e-14 -2.1436e-32
rhumerus -32.5948 2.69548 -80.4202
rradius 30.5645 -0 0
rwrist 2.65991 0 0
rhand -19.9651 -27.1537 -0.000345426
rfingers 7.12502 -0 0
rthumb 6.37347 -57.0377 -0.000322342
111
root -2.83681 16.4878 -36.1997 3.17639 0.344602 -2.54127
lfemur -21.5858 5.80703 -8.89098
ltibia 45.0441 -0 0
lfoot -21.902 0.239252 -0.000945297
ltoes -8.57763 0 0
rfemur -21.9095 -6.03252 14.04
rtibia 47.5062 -0 0
rfoot -25.7334 1.64958 -0.000362866
rtoes -6.94743 0 0
lowerback 7.9567 1.97127 -1.76438
upperback -3.64042 2.5408 1.25095
thorax -8.45804 1.37673 1.92808
lowerneck -2.628 -3.86861 -6.59838
upperneck 5.67422 -5.22259 6.06371
head 2.68151 -2.58218 2.99193
lclavicle -7.47257e-16 1.25663e-14 -1.97077e-32
lhumerus -26.569 -3.61762 89.2857
lradius 24.944 -0 0
lwrist -30.6518 0 0
lhand -28.554 30.4101 0.000249316
lfingers 7.12502 -0 0
lthumb -1.92094 60.3812 0.000242817
rclavicle -7.47257e-16 1.25663e-14 -1.97077e-32
rhumerus -32.6038 2.66853 -80.4172
rradius 30.5576 -0 0
rwrist 2.66705 0 0
rhand -19.9495 -27.1671 -0.000317576
rfingers 7.12502 -0 0
rthumb 6.38857 -57.0507 -0.000296354
